<mxfile host="app.diagrams.net" modified="2023-11-22T03:22:28.609Z" agent="Mozilla/5.0 (Macintosh; Intel Mac OS X 10_15_7) AppleWebKit/537.36 (KHTML, like Gecko) Chrome/119.0.0.0 Safari/537.36" etag="Ni7uXA2UgTic1P1_LNOT" version="22.1.3" type="device">
  <diagram name="페이지-1" id="UhswoTwN5EX5m7q8Bifa">
    <mxGraphModel dx="984" dy="551" grid="1" gridSize="10" guides="1" tooltips="1" connect="1" arrows="1" fold="1" page="1" pageScale="1" pageWidth="827" pageHeight="1169" math="0" shadow="0">
      <root>
        <mxCell id="0" />
        <mxCell id="1" parent="0" />
        <mxCell id="BmULdW4PmcLErp_iG1h3-9" value="User" style="shape=umlActor;verticalLabelPosition=bottom;verticalAlign=top;html=1;outlineConnect=0;" parent="1" vertex="1">
          <mxGeometry x="30" y="177.5" width="30" height="60" as="geometry" />
        </mxCell>
        <mxCell id="BmULdW4PmcLErp_iG1h3-18" value="단위개념 검색" style="ellipse;whiteSpace=wrap;html=1;" parent="1" vertex="1">
          <mxGeometry x="179" y="80" width="110" height="50" as="geometry" />
        </mxCell>
        <mxCell id="BmULdW4PmcLErp_iG1h3-55" value="학습자 통계" style="ellipse;whiteSpace=wrap;html=1;" parent="1" vertex="1">
          <mxGeometry x="179" y="320" width="110" height="50" as="geometry" />
        </mxCell>
        <mxCell id="ZKWm0oTA-IqAlZVZPUwj-1" value="맞춤 학습지 출제" style="ellipse;whiteSpace=wrap;html=1;" vertex="1" parent="1">
          <mxGeometry x="179" y="237.5" width="110" height="50" as="geometry" />
        </mxCell>
        <mxCell id="BmULdW4PmcLErp_iG1h3-84" value="진단 학습지 출력" style="ellipse;whiteSpace=wrap;html=1;" parent="1" vertex="1">
          <mxGeometry x="179" y="160" width="110" height="50" as="geometry" />
        </mxCell>
        <mxCell id="BmULdW4PmcLErp_iG1h3-74" value="&amp;lt;&amp;lt; include&amp;gt;&amp;gt;" style="text;html=1;strokeColor=none;fillColor=none;align=center;verticalAlign=middle;whiteSpace=wrap;rounded=0;" parent="1" vertex="1">
          <mxGeometry x="270" y="192.5" width="100" height="30" as="geometry" />
        </mxCell>
        <mxCell id="BmULdW4PmcLErp_iG1h3-83" value="&amp;lt;&amp;lt; include&amp;gt;&amp;gt;" style="text;html=1;strokeColor=none;fillColor=none;align=center;verticalAlign=middle;whiteSpace=wrap;rounded=0;" parent="1" vertex="1">
          <mxGeometry x="460" y="192.5" width="100" height="30" as="geometry" />
        </mxCell>
        <mxCell id="BmULdW4PmcLErp_iG1h3-94" style="edgeStyle=orthogonalEdgeStyle;rounded=0;orthogonalLoop=1;jettySize=auto;html=1;entryX=1;entryY=0.5;entryDx=0;entryDy=0;dashed=1;exitX=0;exitY=0.5;exitDx=0;exitDy=0;" parent="1" source="BmULdW4PmcLErp_iG1h3-77" target="ZKWm0oTA-IqAlZVZPUwj-10" edge="1">
          <mxGeometry relative="1" as="geometry">
            <Array as="points">
              <mxPoint x="610" y="221" />
            </Array>
            <mxPoint x="550" y="220" as="sourcePoint" />
            <mxPoint x="280" y="220" as="targetPoint" />
          </mxGeometry>
        </mxCell>
        <mxCell id="ZKWm0oTA-IqAlZVZPUwj-13" style="edgeStyle=orthogonalEdgeStyle;rounded=0;orthogonalLoop=1;jettySize=auto;html=1;dashed=1;" edge="1" parent="1" source="ZKWm0oTA-IqAlZVZPUwj-4">
          <mxGeometry relative="1" as="geometry">
            <mxPoint x="290" y="105" as="targetPoint" />
          </mxGeometry>
        </mxCell>
        <mxCell id="ZKWm0oTA-IqAlZVZPUwj-4" value="선수지식 확인" style="ellipse;whiteSpace=wrap;html=1;" vertex="1" parent="1">
          <mxGeometry x="359" y="80" width="110" height="50" as="geometry" />
        </mxCell>
        <mxCell id="ZKWm0oTA-IqAlZVZPUwj-5" value="" style="endArrow=none;html=1;rounded=0;entryX=0;entryY=0.5;entryDx=0;entryDy=0;" edge="1" parent="1" target="BmULdW4PmcLErp_iG1h3-18">
          <mxGeometry width="50" height="50" relative="1" as="geometry">
            <mxPoint x="70" y="210" as="sourcePoint" />
            <mxPoint x="120" y="160" as="targetPoint" />
            <Array as="points" />
          </mxGeometry>
        </mxCell>
        <mxCell id="ZKWm0oTA-IqAlZVZPUwj-6" value="" style="endArrow=none;html=1;rounded=0;entryX=0;entryY=0.5;entryDx=0;entryDy=0;" edge="1" parent="1" target="BmULdW4PmcLErp_iG1h3-84">
          <mxGeometry width="50" height="50" relative="1" as="geometry">
            <mxPoint x="70" y="210" as="sourcePoint" />
            <mxPoint x="199" y="132.5" as="targetPoint" />
            <Array as="points" />
          </mxGeometry>
        </mxCell>
        <mxCell id="ZKWm0oTA-IqAlZVZPUwj-7" value="" style="endArrow=none;html=1;rounded=0;entryX=0;entryY=0.5;entryDx=0;entryDy=0;" edge="1" parent="1" target="ZKWm0oTA-IqAlZVZPUwj-1">
          <mxGeometry width="50" height="50" relative="1" as="geometry">
            <mxPoint x="70" y="210" as="sourcePoint" />
            <mxPoint x="169" y="245" as="targetPoint" />
            <Array as="points" />
          </mxGeometry>
        </mxCell>
        <mxCell id="ZKWm0oTA-IqAlZVZPUwj-8" value="" style="endArrow=none;html=1;rounded=0;entryX=0;entryY=0.5;entryDx=0;entryDy=0;" edge="1" parent="1" target="BmULdW4PmcLErp_iG1h3-55">
          <mxGeometry width="50" height="50" relative="1" as="geometry">
            <mxPoint x="70" y="210" as="sourcePoint" />
            <mxPoint x="169" y="292.5" as="targetPoint" />
            <Array as="points" />
          </mxGeometry>
        </mxCell>
        <mxCell id="ZKWm0oTA-IqAlZVZPUwj-16" value="" style="edgeStyle=orthogonalEdgeStyle;rounded=0;orthogonalLoop=1;jettySize=auto;html=1;dashed=1;" edge="1" parent="1">
          <mxGeometry relative="1" as="geometry">
            <mxPoint x="370" y="220" as="sourcePoint" />
            <mxPoint x="290" y="185" as="targetPoint" />
            <Array as="points">
              <mxPoint x="315" y="220" />
              <mxPoint x="315" y="185" />
            </Array>
          </mxGeometry>
        </mxCell>
        <mxCell id="ZKWm0oTA-IqAlZVZPUwj-10" value="정오답 입력" style="ellipse;whiteSpace=wrap;html=1;" vertex="1" parent="1">
          <mxGeometry x="359" y="196" width="110" height="50" as="geometry" />
        </mxCell>
        <mxCell id="ZKWm0oTA-IqAlZVZPUwj-14" value="&amp;lt;&amp;lt; include&amp;gt;&amp;gt;" style="text;html=1;strokeColor=none;fillColor=none;align=center;verticalAlign=middle;whiteSpace=wrap;rounded=0;" vertex="1" parent="1">
          <mxGeometry x="280" y="70" width="100" height="30" as="geometry" />
        </mxCell>
        <mxCell id="ZKWm0oTA-IqAlZVZPUwj-17" value="" style="edgeStyle=orthogonalEdgeStyle;rounded=0;orthogonalLoop=1;jettySize=auto;html=1;entryX=1;entryY=0.5;entryDx=0;entryDy=0;dashed=1;" edge="1" parent="1">
          <mxGeometry relative="1" as="geometry">
            <mxPoint x="360" y="220" as="sourcePoint" />
            <mxPoint x="289" y="256.5" as="targetPoint" />
            <Array as="points">
              <mxPoint x="315" y="220" />
              <mxPoint x="315" y="257" />
            </Array>
          </mxGeometry>
        </mxCell>
        <mxCell id="ZKWm0oTA-IqAlZVZPUwj-19" value="" style="group" vertex="1" connectable="0" parent="1">
          <mxGeometry x="550" y="146" width="260" height="150" as="geometry" />
        </mxCell>
        <mxCell id="q2FdavY7mowxGqcacqMk-14" value="정오답 확률&lt;br&gt;예측 AI" style="rounded=0;whiteSpace=wrap;html=1;" parent="ZKWm0oTA-IqAlZVZPUwj-19" vertex="1">
          <mxGeometry x="180" y="46" width="80" height="50" as="geometry" />
        </mxCell>
        <mxCell id="BmULdW4PmcLErp_iG1h3-77" value="" style="rounded=0;whiteSpace=wrap;html=1;" parent="ZKWm0oTA-IqAlZVZPUwj-19" vertex="1">
          <mxGeometry width="140" height="150" as="geometry" />
        </mxCell>
        <mxCell id="BmULdW4PmcLErp_iG1h3-60" value="수준 분석" style="ellipse;whiteSpace=wrap;html=1;" parent="ZKWm0oTA-IqAlZVZPUwj-19" vertex="1">
          <mxGeometry x="10" y="20" width="110" height="50" as="geometry" />
        </mxCell>
        <mxCell id="BmULdW4PmcLErp_iG1h3-62" style="edgeStyle=orthogonalEdgeStyle;rounded=0;orthogonalLoop=1;jettySize=auto;html=1;entryX=1;entryY=0.5;entryDx=0;entryDy=0;endArrow=none;endFill=0;" parent="ZKWm0oTA-IqAlZVZPUwj-19" target="BmULdW4PmcLErp_iG1h3-60" edge="1">
          <mxGeometry relative="1" as="geometry">
            <mxPoint x="180" y="70" as="sourcePoint" />
          </mxGeometry>
        </mxCell>
        <mxCell id="BmULdW4PmcLErp_iG1h3-61" value="문항 추천" style="ellipse;whiteSpace=wrap;html=1;" parent="ZKWm0oTA-IqAlZVZPUwj-19" vertex="1">
          <mxGeometry x="10" y="80" width="110" height="50" as="geometry" />
        </mxCell>
        <mxCell id="BmULdW4PmcLErp_iG1h3-63" style="edgeStyle=orthogonalEdgeStyle;rounded=0;orthogonalLoop=1;jettySize=auto;html=1;entryX=1;entryY=0.5;entryDx=0;entryDy=0;endArrow=none;endFill=0;" parent="ZKWm0oTA-IqAlZVZPUwj-19" target="BmULdW4PmcLErp_iG1h3-61" edge="1">
          <mxGeometry relative="1" as="geometry">
            <mxPoint x="180" y="70" as="sourcePoint" />
          </mxGeometry>
        </mxCell>
      </root>
    </mxGraphModel>
  </diagram>
</mxfile>
